<?xml version="1.0" encoding="UTF-8"?>
<svg version="1.1" xmlns="http://www.w3.org/2000/svg" width="161" height="206">
<path d="M0 0 C0.99 0 1.98 0 3 0 C4.54296875 1.7578125 4.54296875 1.7578125 6.1875 4.125 C15.59300942 16.64608442 31.9508202 23.51201685 47.1875 25.75 C59.06531226 26.52887293 70.29064393 24.96492619 82 23 C82.5685103 58.29428562 79.70469394 90.19522177 65.76269531 123.16748047 C65.08471433 124.79645782 64.45661256 126.44599409 63.8359375 128.09765625 C58.49153328 142.07385002 50.17580365 155.23060731 41 167 C40.42894531 167.76183594 39.85789062 168.52367187 39.26953125 169.30859375 C32.98912595 177.60102821 26.00552254 186.30285926 18 193 C17.34 193 16.68 193 16 193 C15.67 193.99 15.34 194.98 15 196 C11.55555556 199 11.55555556 199 9 199 C9 199.66 9 200.32 9 201 C4.00008531 205.069698 4.00008531 205.069698 0.58984375 204.83203125 C-19.96623257 198.22804293 -38.35198252 168.60248936 -49 151 C-49.57065186 150.05833984 -49.57065186 150.05833984 -50.15283203 149.09765625 C-73.54609099 110.06635217 -79.72025469 67.71488835 -79 23 C-78.45174561 23.09087891 -77.90349121 23.18175781 -77.33862305 23.27539062 C-55.22975006 26.8940919 -33.85179791 27.90453081 -14.4140625 14.6328125 C-8.55366082 10.40178931 -3.96946714 6.08651628 0 0 Z M0 11 C-0.65484375 11.65226563 -1.3096875 12.30453125 -1.984375 12.9765625 C-8.47352575 19.19074923 -14.56401677 23.61958817 -23 27 C-24.11503906 27.48597656 -25.23007812 27.97195312 -26.37890625 28.47265625 C-41.02524451 34.14944161 -57.56906931 32.44369216 -73 32 C-75.19356943 84.88939632 -56.0165605 138.12867552 -20.4375 177.1875 C-13.71117994 184.46390213 -7.133275 191.28940266 1 197 C5.34842919 194.24104121 9.17723558 191.21447005 12.9375 187.6875 C13.46255127 187.19894531 13.98760254 186.71039063 14.52856445 186.20703125 C16.02411914 184.81010234 17.51229118 183.40528171 19 182 C19.66515625 181.37738281 20.3303125 180.75476563 21.015625 180.11328125 C55.49803312 146.83936874 75.03260069 92.98509306 76.25 45.75 C76.28633589 41.16061917 76.19017409 36.58530856 76 32 C75.08935791 32.02618408 74.17871582 32.05236816 73.24047852 32.0793457 C39.54876773 32.92073318 39.54876773 32.92073318 26 27 C24.91589844 26.55398437 23.83179687 26.10796875 22.71484375 25.6484375 C16.07513945 22.64336273 10.74481912 18.64854187 5.27734375 13.85546875 C3.05586621 11.82191594 3.05586621 11.82191594 0 11 Z " fill="#262662" transform="translate(79,0)"/>
<path d="M0 0 C1.4540625 0.0309375 1.4540625 0.0309375 2.9375 0.0625 C3.44309908 1.49804025 3.9417749 2.9360202 4.4375 4.375 C4.7159375 5.17550781 4.994375 5.97601563 5.28125 6.80078125 C5.9375 9.0625 5.9375 9.0625 5.9375 12.0625 C9.95660357 11.12782475 12.0751254 10.19155848 14.4375 6.875 C15.675 5.4828125 15.675 5.4828125 16.9375 4.0625 C19.9075 4.5575 19.9075 4.5575 22.9375 5.0625 C22.9375 9.6825 22.9375 14.3025 22.9375 19.0625 C24.98518169 20.37157481 24.98518169 20.37157481 27.5390625 19.28515625 C28.53679687 18.90230469 29.53453125 18.51945312 30.5625 18.125 C31.56539063 17.74472656 32.56828125 17.36445312 33.6015625 16.97265625 C34.37242188 16.67230469 35.14328125 16.37195313 35.9375 16.0625 C36.9275 17.0525 37.9175 18.0425 38.9375 19.0625 C37.84371639 22.16155357 36.65131455 24.47133636 34.75 27.1875 C34.151875 28.13625 33.55375 29.085 32.9375 30.0625 C33.4325 31.5475 33.4325 31.5475 33.9375 33.0625 C34.79214844 33.19527344 35.64679688 33.32804687 36.52734375 33.46484375 C37.63207031 33.64144531 38.73679687 33.81804687 39.875 34 C40.97714844 34.17402344 42.07929687 34.34804687 43.21484375 34.52734375 C45.9375 35.0625 45.9375 35.0625 46.9375 36.0625 C47.30859375 38.4296875 47.30859375 38.4296875 46.9375 41.0625 C44.78515625 42.7578125 44.78515625 42.7578125 42 44.1875 C37.85203974 46.1177291 37.85203974 46.1177291 35.9375 50.0625 C36.824375 50.330625 37.71125 50.59875 38.625 50.875 C41.70627548 51.97960819 44.19971405 53.29099144 46.9375 55.0625 C46.6075 57.0425 46.2775 59.0225 45.9375 61.0625 C41.6475 61.7225 37.3575 62.3825 32.9375 63.0625 C32.39626179 68.08642669 32.39626179 68.08642669 35.5 71.0625 C37.9375 74.0625 37.9375 74.0625 37.75 76.9375 C37.481875 77.63875 37.21375 78.34 36.9375 79.0625 C33.67550839 80.16442558 32.01291794 79.98536905 28.875 78.625 C26.21259847 77.48543082 24.91057912 77.0625 21.9375 77.0625 C22.4325 83.4975 22.4325 83.4975 22.9375 90.0625 C19.9375 92.0625 19.9375 92.0625 17.94140625 91.91015625 C15.46415993 90.86227623 14.49022587 89.63209815 12.875 87.5 C11.47557132 85.57075272 11.47557132 85.57075272 9.9375 84.0625 C8.9475 84.0625 7.9575 84.0625 6.9375 84.0625 C6.66035156 84.84496094 6.38320312 85.62742187 6.09765625 86.43359375 C5.73542969 87.44550781 5.37320313 88.45742187 5 89.5 C4.64035156 90.50933594 4.28070313 91.51867187 3.91015625 92.55859375 C2.9375 95.0625 2.9375 95.0625 1.9375 96.0625 C0.27132885 96.10313832 -1.39638095 96.105221 -3.0625 96.0625 C-3.51625 94.825 -3.97 93.5875 -4.4375 92.3125 C-5.5009007 89.47004505 -6.61442483 86.73586954 -8.0625 84.0625 C-12.27771172 84.76805046 -13.71320561 86.66937495 -16.3046875 89.8828125 C-18.0625 91.0625 -18.0625 91.0625 -24.0625 90.0625 C-23.7325 85.7725 -23.4025 81.4825 -23.0625 77.0625 C-24.5475 76.0725 -24.5475 76.0725 -26.0625 75.0625 C-26.85914063 75.51302734 -26.85914063 75.51302734 -27.671875 75.97265625 C-28.37828125 76.35292969 -29.0846875 76.73320313 -29.8125 77.125 C-30.50859375 77.50785156 -31.2046875 77.89070313 -31.921875 78.28515625 C-34.42390628 79.1937406 -35.5957355 78.94586837 -38.0625 78.0625 C-38.875 76 -38.875 76 -39.0625 73.0625 C-37.91557342 71.18376579 -36.63127732 69.56975227 -35.19140625 67.90625 C-33.62734943 65.71212216 -33.62734943 65.71212216 -34.0625 61.0625 C-38.3525 61.0625 -42.6425 61.0625 -47.0625 61.0625 C-47.3925 59.0825 -47.7225 57.1025 -48.0625 55.0625 C-47.35222656 54.67578125 -46.64195313 54.2890625 -45.91015625 53.890625 C-44.53150391 53.10945313 -44.53150391 53.10945313 -43.125 52.3125 C-42.20847656 51.80203125 -41.29195312 51.2915625 -40.34765625 50.765625 C-37.91357487 49.27389705 -37.91357487 49.27389705 -37.24609375 46.859375 C-37.18550781 46.26640625 -37.12492187 45.6734375 -37.0625 45.0625 C-37.97 44.77375 -38.8775 44.485 -39.8125 44.1875 C-42.38452908 43.29718224 -44.67596766 42.34755587 -47.0625 41.0625 C-47.0625 38.7525 -47.0625 36.4425 -47.0625 34.0625 C-40.6275 33.5675 -40.6275 33.5675 -34.0625 33.0625 C-33.7325 31.7425 -33.4025 30.4225 -33.0625 29.0625 C-34.28840192 26.98272703 -34.28840192 26.98272703 -36.0625 25.0625 C-37.8125 23.0625 -37.8125 23.0625 -39.0625 21.0625 C-38.75 18.8125 -38.75 18.8125 -38.0625 17.0625 C-32.93410006 15.24274518 -28.88565618 17.2025901 -24.0625 19.0625 C-23.4025 18.4025 -22.7425 17.7425 -22.0625 17.0625 C-22.26393815 14.14681852 -22.26393815 14.14681852 -22.9375 10.9375 C-23.14117187 9.84179688 -23.34484375 8.74609375 -23.5546875 7.6171875 C-23.72226562 6.77414063 -23.88984375 5.93109375 -24.0625 5.0625 C-20.9375 4.125 -20.9375 4.125 -17.0625 4.0625 C-15.21714308 5.72115022 -13.91172474 7.44591832 -12.51953125 9.49609375 C-12.03871094 10.01300781 -11.55789062 10.52992187 -11.0625 11.0625 C-9.7425 11.0625 -8.4225 11.0625 -7.0625 11.0625 C-6.85753906 10.35222656 -6.65257812 9.64195313 -6.44140625 8.91015625 C-6.17199219 7.99105469 -5.90257812 7.07195313 -5.625 6.125 C-5.35816406 5.20847656 -5.09132812 4.29195312 -4.81640625 3.34765625 C-3.69602076 -0.04833086 -3.73530459 0.07623071 0 0 Z M-23.0625 28.0625 C-28.9260473 36.4655882 -30.85749121 42.82698817 -30.0625 53.0625 C-27.97264761 62.05193859 -22.39768412 68.70321419 -15.0625 74.0625 C-8.48438519 78.10618963 -0.52043916 77.96649263 6.9375 77.0625 C15.46928627 74.21480445 22.5042257 68.93350629 26.9375 61.0625 C29.92721086 53.62974662 30.34136998 44.45789278 27.9375 36.75 C24.52962403 29.2751777 18.32513847 23.42051748 10.9375 20.0625 C-1.0016556 15.64059052 -14.59244889 18.09276404 -23.0625 28.0625 Z " fill="#B01818" transform="translate(81.0625,38.9375)"/>
<path d="M0 0 C3.125 2.125 3.125 2.125 5 4 C5 4.66 5 5.32 5 6 C5.66 6 6.32 6 7 6 C7.6509259 7.24735567 8.29551669 8.49801832 8.9375 9.75 C9.47697266 10.79414062 9.47697266 10.79414062 10.02734375 11.859375 C12.90298612 18.18809796 13.11283554 25.86661086 11.31640625 32.5390625 C8.09569447 40.31688099 3.52555625 45.78327823 -4.16796875 49.2734375 C-11.79365024 52.29769498 -20.41764941 51.94027568 -28.0390625 48.96875 C-34.7848292 45.63618 -39.18889499 39.91719703 -41.75390625 32.953125 C-43.97946015 24.92245499 -43.36213996 17.5648149 -40 10 C-30.35939087 -4.19311899 -15.0216357 -7.81656796 0 0 Z " fill="#2A2C67" transform="translate(96,63)"/>
<path d="M0 0 C5.92135794 2.6400959 9.39849225 6.98052482 12.9296875 12.265625 C14.13846358 15.55810081 13.95991169 18.79474748 13.875 22.25 C13.86597656 22.94738281 13.85695312 23.64476563 13.84765625 24.36328125 C13.82419888 26.07566958 13.78833104 27.78788004 13.75 29.5 C8.36311172 28.62474345 5.57065074 26.32065074 1.75 22.5 C0.96625 23.325 0.1825 24.15 -0.625 25 C-4.20775876 27.97997233 -7.28908405 28.15404879 -11.84375 27.94140625 C-15.44153387 27.28142317 -17.41515246 25.76787803 -20.25 23.5 C-23.26460801 23.5 -24.54566756 25.43748936 -26.72265625 27.31640625 C-28.52155923 28.71044104 -29.97322712 29.33135016 -32.25 29.5 C-34.07922198 27.67077802 -33.55079876 24.96576433 -33.625 22.5 C-33.55360632 15.98175745 -32.47228382 11.52218891 -28.25 6.5 C-19.7439922 -1.31542103 -11.23011079 -3.88074165 0 0 Z " fill="#ADD8F2" transform="translate(90.25,64.5)"/>
<path d="M0 0 C5.75 1.875 5.75 1.875 8 3 C8.96142578 5.04125977 8.96142578 5.04125977 9.9453125 7.69140625 C10.29980469 8.63564453 10.65429688 9.57988281 11.01953125 10.55273438 C11.38433594 11.54595703 11.74914063 12.53917969 12.125 13.5625 C12.68380859 15.05813477 12.68380859 15.05813477 13.25390625 16.58398438 C14.17559533 19.05363846 15.08860894 21.52652706 16 24 C16.33 18.39 16.66 12.78 17 7 C19.31 7.33 21.62 7.66 24 8 C24 22.52 24 37.04 24 52 C18.48715365 49.79486146 17.31660298 48.06965015 15 43 C13.66544153 39.88400817 12.44151543 36.73561298 11.25 33.5625 C10.93417969 32.73556641 10.61835937 31.90863281 10.29296875 31.05664062 C9.52350541 29.039714 8.7610214 27.02012704 8 25 C7.67 27.97 7.34 30.94 7 34 C6.34 34 5.68 34 5 34 C0.66871572 29.62975364 -0.3407465 26.56088876 -0.48828125 20.41015625 C-0.45526646 17.96045918 -0.39595692 15.51099763 -0.3125 13.0625 C-0.28994141 11.80630859 -0.26738281 10.55011719 -0.24414062 9.25585938 C-0.18546147 6.16933585 -0.10340527 3.08529514 0 0 Z " fill="#252563" transform="translate(50,133)"/>
<path d="M0 0 C0 1.98 0 3.96 0 6 C-3.96 7.98 -7.92 9.96 -12 12 C-12 13.65 -12 15.3 -12 17 C-11.37351562 16.566875 -10.74703125 16.13375 -10.1015625 15.6875 C-9.28429687 15.130625 -8.46703125 14.57375 -7.625 14 C-6.81289062 13.443125 -6.00078125 12.88625 -5.1640625 12.3125 C-3 11 -3 11 -1 11 C-0.0267658 15.24684015 -0.0267658 15.24684015 -1 18 C-3.72984857 20.26834307 -6.54759735 22.09092619 -9.59375 23.91015625 C-10.78484375 24.94462891 -10.78484375 24.94462891 -12 26 C-12 27.98 -12 29.96 -12 32 C-8.7 29.03 -5.4 26.06 -2 23 C-1.34 23.33 -0.68 23.66 0 24 C0.49112162 26.78425337 0.66140162 28.29828969 0 31 C-2.39832553 34.34477375 -5.3174018 37.06633879 -8.3125 39.875 C-9.49102539 41.03128906 -9.49102539 41.03128906 -10.69335938 42.2109375 C-16.51339636 47.83779879 -16.51339636 47.83779879 -20 49 C-20 34.81 -20 20.62 -20 6 C-16.04 4.68 -12.08 3.36 -8 2 C-4 0 -4 0 0 0 Z " fill="#252562" transform="translate(109,135)"/>
<path d="M0 0 C14.19 0 28.38 0 43 0 C40.58500191 6.03749522 37.17666919 10.13973674 31.34765625 13.265625 C25.13299086 15.20964679 17.61790301 15.25791705 11.4609375 13.1171875 C6.85434373 10.43148997 2.94956191 6.43551545 0 2 C0 1.34 0 0.68 0 0 Z " fill="#ADD8F2" transform="translate(59,96)"/>
<path d="M0 0 C1.98 0 3.96 0 6 0 C7 1 7 1 7.12025452 2.79066467 C7.11803391 3.57009933 7.11581329 4.349534 7.11352539 5.15258789 C7.11344986 6.03342545 7.11337433 6.914263 7.11329651 7.8217926 C7.10813522 8.77907761 7.10297394 9.73636261 7.09765625 10.72265625 C7.0962413 11.69786728 7.09482635 12.67307831 7.09336853 13.67784119 C7.08775133 16.80609143 7.07519593 19.93427123 7.0625 23.0625 C7.05748722 25.17773334 7.05292393 27.29296781 7.04882812 29.40820312 C7.03777631 34.60549296 7.02102146 39.80274145 7 45 C4.69 45 2.38 45 0 45 C0 30.15 0 15.3 0 0 Z " fill="#262663" transform="translate(78,141)"/>
<path d="M0 0 C0.46148437 0.3609375 0.92296875 0.721875 1.3984375 1.09375 C6.1129419 4.44794285 9.77827747 5.77728234 15.58984375 5.5078125 C19.59975287 4.662937 21.93528926 2.66496586 25 0 C25.53625 0.7425 26.0725 1.485 26.625 2.25 C29.15264739 5.17674961 31.71827368 6.98621339 35 9 C34.67 9.66 34.34 10.32 34 11 C29.32267637 11.02492221 24.64539233 11.04296415 19.96801758 11.05493164 C18.38044561 11.05992654 16.79287817 11.06672475 15.20532227 11.07543945 C-1.02895258 11.16225376 -1.02895258 11.16225376 -9 10 C-7.66195697 5.98587091 -5.47584633 5.26994046 -2 3 C-1.34 2.01 -0.68 1.02 0 0 Z " fill="#536093" transform="translate(68,86)"/>
<path d="M0 0 C13.86 0 27.72 0 42 0 C40 2 40 2 37.375 2.125 C36.59125 2.08375 35.8075 2.0425 35 2 C35 2.66 35 3.32 35 4 C32.69 4.66 30.38 5.32 28 6 C28 6.33 28 6.66 28 7 C24.37 7 20.74 7 17 7 C17 6.34 17 5.68 17 5 C15.02 5.33 13.04 5.66 11 6 C11 5.34 11 4.68 11 4 C7.17679443 2.57741188 4.08718695 1.75957724 0 2 C0 1.34 0 0.68 0 0 Z " fill="#99BDDD" transform="translate(59,96)"/>
<path d="M0 0 C-0.33 0.66 -0.66 1.32 -1 2 C-0.01 2.99 0.98 3.98 2 5 C1.01 6.485 1.01 6.485 0 8 C0.66 8.33 1.32 8.66 2 9 C0.35 9 -1.3 9 -3 9 C-3 10.32 -3 11.64 -3 13 C-3.66 13 -4.32 13 -5 13 C-5 13.99 -5 14.98 -5 16 C-4.01 15.67 -3.02 15.34 -2 15 C-1.875 17.875 -1.875 17.875 -2 21 C-4 23 -4 23 -7 24 C-6.67 20.04 -6.34 16.08 -6 12 C-7.65 12.33 -9.3 12.66 -11 13 C-9.68 12.01 -8.36 11.02 -7 10 C-7.66 9.34 -8.32 8.68 -9 8 C-8.01 8 -7.02 8 -6 8 C-6 6.68 -6 5.36 -6 4 C-6.66 3.67 -7.32 3.34 -8 3 C-5.53387212 -0.1151089 -3.89156016 -0.31553191 0 0 Z " fill="#8FB0D3" transform="translate(90,68)"/>
<path d="M0 0 C3 0 3 0 4.5625 1.4375 C5.036875 1.953125 5.51125 2.46875 6 3 C6.66 3.33 7.32 3.66 8 4 C7.34 6.97 6.68 9.94 6 13 C5.2575 12.814375 4.515 12.62875 3.75 12.4375 C1.05009037 12.00796892 -0.44631077 12.14877026 -3 13 C-2.95875 12.2575 -2.9175 11.515 -2.875 10.75 C-3.00398134 7.91241048 -3.57051222 6.41226062 -5 4 C-4.360625 3.71125 -3.72125 3.4225 -3.0625 3.125 C-0.84793921 2.17176549 -0.84793921 2.17176549 0 0 Z " fill="#22225E" transform="translate(140,38)"/>
<path d="M0 0 C0.99 0.33 1.98 0.66 3 1 C3 1.66 3 2.32 3 3 C4.65 3.33 6.3 3.66 8 4 C7.67 4.99 7.34 5.98 7 7 C6.34 7 5.68 7 5 7 C5 8.98 5 10.96 5 13 C4.2575 12.814375 3.515 12.62875 2.75 12.4375 C0.05009037 12.00796892 -1.44631077 12.14877026 -4 13 C-3.95875 12.2575 -3.9175 11.515 -3.875 10.75 C-4.00398134 7.91241048 -4.57051222 6.41226062 -6 4 C-4.35 3.67 -2.7 3.34 -1 3 C-0.67 2.01 -0.34 1.02 0 0 Z " fill="#22225D" transform="translate(19,38)"/>
<path d="M0 0 C0.66 0 1.32 0 2 0 C2.66 0.99 3.32 1.98 4 3 C5.32 3.33 6.64 3.66 8 4 C7.01 6.97 6.02 9.94 5 13 C4.2575 12.814375 3.515 12.62875 2.75 12.4375 C0.05009037 12.00796892 -1.44631077 12.14877026 -4 13 C-3.95875 12.2575 -3.9175 11.515 -3.875 10.75 C-4.00398134 7.91241048 -4.57051222 6.41226062 -6 4 C-5.38125 3.896875 -4.7625 3.79375 -4.125 3.6875 C-1.63473516 3.12474627 -1.63473516 3.12474627 0 0 Z " fill="#242460" transform="translate(80,19)"/>
<path d="M0 0 C3.3 1.98 6.6 3.96 10 6 C9.01 6.33 8.02 6.66 7 7 C4.3125 5.5625 4.3125 5.5625 2 4 C1.67 5.32 1.34 6.64 1 8 C3.64 8 6.28 8 9 8 C9 8.33 9 8.66 9 9 C6.36 9 3.72 9 1 9 C0.67 9.66 0.34 10.32 0 11 C-2.97 10.67 -5.94 10.34 -9 10 C-7.66195697 5.98587091 -5.47584633 5.26994046 -2 3 C-1.34 2.01 -0.68 1.02 0 0 Z " fill="#4F5B8F" transform="translate(68,86)"/>
<path d="M0 0 C0.825 0.495 1.65 0.99 2.5 1.5 C6.75488188 3.32352081 9.42308671 3.23673689 14 3 C12.68 3.33 11.36 3.66 10 4 C10 4.66 10 5.32 10 6 C14.29 6 18.58 6 23 6 C23 6.33 23 6.66 23 7 C15.41 7 7.82 7 0 7 C0 4.69 0 2.38 0 0 Z " fill="#7088B2" transform="translate(69,89)"/>
<path d="M0 0 C3.5786304 1.65167557 6.74820188 3.78286492 10 6 C9.67 6.66 9.34 7.32 9 8 C6.03 7.67 3.06 7.34 0 7 C0 4.69 0 2.38 0 0 Z " fill="#677CA9" transform="translate(93,89)"/>
<path d="M0 0 C0 1.98 0 3.96 0 6 C-2.97 6 -5.94 6 -9 6 C-8 3 -8 3 -5.625 1.3125 C-3 0 -3 0 0 0 Z " fill="#7A95BC" transform="translate(68,90)"/>
<path d="M0 0 C0.99 0.33 1.98 0.66 3 1 C2.67 1.33 2.34 1.66 2 2 C2.99 2.99 3.98 3.98 5 5 C4.01 6.485 4.01 6.485 3 8 C3.66 8.33 4.32 8.66 5 9 C3.35 8.67 1.7 8.34 0 8 C-0.38063221 5.6739143 -0.71269945 3.33944736 -1 1 C-0.67 0.67 -0.34 0.34 0 0 Z " fill="#9ABEDD" transform="translate(87,68)"/>
<path d="M0 0 C0.66 0 1.32 0 2 0 C2 1.32 2 2.64 2 4 C2.66 4.33 3.32 4.66 4 5 C3.34 5 2.68 5 2 5 C2.33 7.31 2.66 9.62 3 12 C0.525 11.01 0.525 11.01 -2 10 C-1.67 9.46375 -1.34 8.9275 -1 8.375 C0.22699204 5.4608939 0.14233286 3.13132292 0 0 Z " fill="#89A8CC" transform="translate(73,79)"/>
<path d="M0 0 C1.32 0 2.64 0 4 0 C4 1.98 4 3.96 4 6 C2.35 6 0.7 6 -1 6 C-0.67 4.02 -0.34 2.04 0 0 Z " fill="#A2C8E6" transform="translate(79,96)"/>
<path d="M0 0 C4.455 1.98 4.455 1.98 9 4 C9 4.33 9 4.66 9 5 C6.03 5 3.06 5 0 5 C0 3.35 0 1.7 0 0 Z " fill="#83A0C5" transform="translate(69,89)"/>
<path d="M0 0 C0 1.65 0 3.3 0 5 C-2.64 5 -5.28 5 -8 5 C-1.40909091 0 -1.40909091 0 0 0 Z " fill="#7F9CC2" transform="translate(92,89)"/>
<path d="M0 0 C0 1.65 0 3.3 0 5 C-1.65 5 -3.3 5 -5 5 C-5.33 4.34 -5.66 3.68 -6 3 C-1.125 0 -1.125 0 0 0 Z " fill="#6073A1" transform="translate(66,90)"/>
</svg>
